<?xml version="1.0" encoding="UTF-8"?>
<svg version="1.1" xmlns="http://www.w3.org/2000/svg" width="100" height="71">
<path d="M0 0 C33 0 66 0 100 0 C100 23.43 100 46.86 100 71 C67 71 34 71 0 71 C0 47.57 0 24.14 0 0 Z " fill="#FCFCFD" transform="translate(0,0)"/>
<path d="M0 0 C0 2.64 0 5.28 0 8 C1.32 8 2.64 8 4 8 C4 9.98 4 11.96 4 14 C2.68 14 1.36 14 0 14 C0 17.3 0 20.6 0 24 C1.32 24 2.64 24 4 24 C4 25.65 4 27.3 4 29 C2.37581255 29.08090971 0.75048255 29.13914995 -0.875 29.1875 C-1.77992187 29.22230469 -2.68484375 29.25710937 -3.6171875 29.29296875 C-4.79667969 29.14794922 -4.79667969 29.14794922 -6 29 C-8.35119399 25.47320901 -8.21443452 23.97120515 -8.125 19.8125 C-8.10695313 18.72582031 -8.08890625 17.63914062 -8.0703125 16.51953125 C-8.04710938 15.68808594 -8.02390625 14.85664062 -8 14 C-8.99 14 -9.98 14 -11 14 C-11 12.02 -11 10.04 -11 8 C-10.01 8 -9.02 8 -8 8 C-7.938125 7.236875 -7.87625 6.47375 -7.8125 5.6875 C-7 3 -7 3 -4.5625 1.1875 C-2 0 -2 0 0 0 Z " fill="#4875C5" transform="translate(79,19)"/>
<path d="M0 0 C2.97 0 5.94 0 9 0 C9 9.57 9 19.14 9 29 C6.03 29 3.06 29 0 29 C0 19.43 0 9.86 0 0 Z " fill="#4774C5" transform="translate(54,19)"/>
<path d="M0 0 C8.58 0 17.16 0 26 0 C26 2.64 26 5.28 26 8 C17.42 8 8.84 8 0 8 C0 5.36 0 2.72 0 0 Z " fill="#191919" transform="translate(15,44)"/>
<path d="M0 0 C8.58 0 17.16 0 26 0 C26 2.64 26 5.28 26 8 C17.42 8 8.84 8 0 8 C0 5.36 0 2.72 0 0 Z " fill="#1C1C1C" transform="translate(15,17)"/>
<path d="M0 0 C7.92 0 15.84 0 24 0 C24 2.31 24 4.62 24 7 C16.08 7 8.16 7 0 7 C0 4.69 0 2.38 0 0 Z " fill="#030303" transform="translate(16,31)"/>
</svg>
